Genre                                    : Action Comedy
Format                                   : MPEG-4
Format profile                           : Base Media / Version 2
Codec ID                                 : mp42
File size                                : 1.33 GiB
Duration                                 : 1h 54mn
Overall bit rate mode                    : Variable
Overall bit rate                         : 1 660 Kbps

Video
ID                                       : 1
Format                                   : AVC
Format/Info                              : Advanced Video Codec
Format profile                           : High@L4.0
Format settings, CABAC                   : Yes
Format settings, ReFrames                : 4 frames
Codec ID                                 : avc1
Codec ID/Info                            : Advanced Video Coding
Duration                                 : 1h 54mn
Bit rate mode                            : Variable
Bit rate                                 : 1 500 Kbps
Maximum bit rate                         : 9 422 Kbps
Width                                    : 1 920 pixels
Height                                   : 800 pixels
Display aspect ratio                     : 2.40:1
Frame rate mode                          : Constant
Frame rate                               : 23.976 fps
Color space                              : YUV
Chroma subsampling                       : 4:2:0
Bit depth                                : 8 bits
Scan type                                : Progressive
Bits/(Pixel*Frame)                       : 0.041
Stream size                              : 1.20 GiB (90%)
Language                                 : English

Audio
ID                                       : 2
Format                                   : AAC
Format/Info                              : Advanced Audio Codec
Format profile                           : LC
Codec ID                                 : 40
Duration                                 : 1h 54mn
Bit rate mode                            : Variable
Bit rate                                 : 157 Kbps
Maximum bit rate                         : 190 Kbps
Channel(s)                               : 6 channels
Channel positions                        : Front: L C R, Side: L R, LFE
Sampling rate                            : 48.0 KHz
Compression mode                         : Lossy
Delay relative to video                  : 42ms
Stream size                              : 128 MiB (9%)
Language                                 : English
Subtitles                                : English HardCoded When Needed


IMDB:  http://www.imdb.com/title/tt1032755/

Screens:  http://bayimg.com/lALalaAEp

          http://bayimg.com/laLAMaaEP

          http://bayimg.com/lALaoaaep  

Storyline

Lenny Cole, a London mob boss, puts the bite on all local real estate transactions. For substantial fees, he's helping Uri Omovich, a Russian developer. As a sign of good faith, Omovich loans Cole a valuable painting, promptly stolen off Cole's wall. While Cole's men, led by the dependable Archie, look for the canvas, three local petty criminals, the Wild Bunch, steal money from the Russian using inside information from his accountant, the lovely Stella. Meanwhile, a local drug-addled rocker, Johnny Quid, is reported drowned, and his connection to Cole is the key to unraveling the deceits and double crosses of life in the underworld.

Enjoy.